<svg> 
<path style=" stroke:none;fill-rule:nonzero;fill:rgb(0%,0%,0%);fill-opacity:1;" d="M 1.714844 1 C 0.769531 1 0 1.671875 0 2.5 L 0 13.5 C 0 14.328125 0.769531 15 1.714844 15 L 14.285156 15 C 15.230469 15 16 14.328125 16 13.5 L 16 2.5 C 16 1.671875 15.230469 1 14.285156 1 Z M 6.738281 3 L 13.105469 3 L 12.515625 3.402344 L 12.515625 4.109375 C 12.734375 4.136719 12.710938 4.25 12.710938 4.386719 L 12.710938 7.738281 C 12.710938 7.894531 12.566406 8.019531 12.390625 8.019531 L 12.269531 8.019531 C 12.09375 8.019531 11.949219 7.894531 11.949219 7.738281 L 11.949219 4.386719 C 11.949219 4.25 11.925781 4.136719 12.144531 4.109375 L 12.144531 3.664062 L 10.453125 4.878906 C 10.472656 4.914062 10.488281 4.933594 10.507812 4.960938 C 10.65625 5.191406 10.730469 5.476562 10.730469 5.828125 C 10.730469 6.09375 10.679688 6.335938 10.578125 6.550781 C 10.472656 6.761719 10.347656 6.9375 10.203125 7.070312 C 10.054688 7.207031 9.910156 7.328125 9.761719 7.4375 C 9.613281 7.550781 9.488281 7.664062 9.386719 7.785156 C 9.28125 7.90625 9.230469 8.027344 9.230469 8.15625 C 9.230469 8.285156 9.296875 8.414062 9.433594 8.546875 C 9.566406 8.679688 9.726562 8.804688 9.921875 8.933594 C 10.117188 9.058594 10.308594 9.195312 10.503906 9.347656 C 10.695312 9.5 10.859375 9.695312 10.992188 9.929688 C 11.125 10.167969 11.191406 10.429688 11.191406 10.714844 C 11.191406 11.09375 11.082031 11.433594 10.863281 11.738281 C 10.640625 12.042969 10.355469 12.285156 10.003906 12.460938 C 9.648438 12.640625 9.269531 12.773438 8.867188 12.863281 C 8.460938 12.953125 8.058594 13 7.660156 13 C 7.40625 13 7.152344 12.984375 6.894531 12.949219 C 6.636719 12.914062 6.378906 12.851562 6.117188 12.765625 C 5.859375 12.675781 5.628906 12.570312 5.425781 12.4375 C 5.226562 12.3125 5.066406 12.144531 4.941406 11.945312 C 4.820312 11.742188 4.757812 11.515625 4.757812 11.265625 C 4.757812 10.96875 4.851562 10.691406 5.042969 10.433594 C 5.230469 10.179688 5.484375 9.964844 5.796875 9.796875 C 6.34375 9.496094 7.203125 9.3125 8.371094 9.242188 C 8.101562 8.953125 7.96875 8.675781 7.96875 8.417969 C 7.96875 8.273438 8.011719 8.117188 8.101562 7.949219 C 7.960938 7.964844 7.816406 7.972656 7.671875 7.972656 C 7.042969 7.972656 6.511719 7.796875 6.082031 7.4375 C 5.652344 7.078125 5.4375 6.628906 5.4375 6.085938 C 5.4375 6.027344 5.441406 5.980469 5.445312 5.921875 L 2.894531 5.921875 Z M 7.859375 4.199219 C 7.460938 4.199219 7.152344 4.324219 6.9375 4.574219 C 6.726562 4.824219 6.617188 5.128906 6.617188 5.484375 C 6.617188 5.789062 6.675781 6.097656 6.792969 6.414062 C 6.910156 6.730469 7.101562 7.011719 7.371094 7.257812 C 7.636719 7.507812 7.949219 7.632812 8.300781 7.632812 C 8.695312 7.632812 9 7.515625 9.222656 7.285156 C 9.441406 7.054688 9.550781 6.765625 9.550781 6.414062 C 9.550781 6.117188 9.492188 5.804688 9.375 5.476562 C 9.261719 5.148438 9.066406 4.855469 8.796875 4.59375 C 8.527344 4.328125 8.214844 4.199219 7.859375 4.199219 Z M 8.519531 9.574219 C 8.234375 9.574219 7.953125 9.597656 7.675781 9.640625 C 7.398438 9.683594 7.125 9.757812 6.855469 9.859375 C 6.582031 9.964844 6.363281 10.113281 6.199219 10.3125 C 6.03125 10.511719 5.949219 10.742188 5.949219 11.011719 C 5.949219 11.269531 6.023438 11.496094 6.167969 11.695312 C 6.316406 11.894531 6.507812 12.046875 6.75 12.160156 C 6.988281 12.269531 7.242188 12.355469 7.503906 12.410156 C 7.769531 12.464844 8.035156 12.492188 8.308594 12.492188 C 8.851562 12.492188 9.316406 12.386719 9.707031 12.171875 C 10.097656 11.960938 10.292969 11.632812 10.292969 11.1875 C 10.292969 11.09375 10.277344 11 10.246094 10.910156 C 10.21875 10.820312 10.1875 10.742188 10.15625 10.679688 C 10.128906 10.617188 10.070312 10.539062 9.988281 10.453125 C 9.902344 10.363281 9.839844 10.296875 9.796875 10.253906 C 9.753906 10.210938 9.671875 10.144531 9.550781 10.0625 C 9.433594 9.976562 9.355469 9.925781 9.320312 9.90625 C 9.289062 9.882812 9.199219 9.828125 9.0625 9.738281 C 8.921875 9.648438 8.84375 9.597656 8.832031 9.59375 C 8.757812 9.582031 8.652344 9.574219 8.519531 9.574219 Z M 8.519531 9.574219 "/>
</svg>